<?xml version="1.0" encoding="utf-8" standalone="no"?><!DOCTYPE svg PUBLIC "-//W3C//DTD SVG 20010904//EN" "http://www.w3.org/TR/2001/REC-SVG-20010904/DTD/svg10.dtd"><svg xmlns="http://www.w3.org/2000/svg" width="1290" height="304" xmlns:xlink="http://www.w3.org/1999/xlink"><source><![CDATA[flight director->marathon: publishes app
capcom->marathon: retrieves app parameters
capcom->nginx: publishes app on service port
Note right of ngingx: Establishes the balancer port]]></source><desc>Created with Raphaël 2.1.2</desc><defs><path stroke-linecap="round" d="M5,0 0,2.5 5,5z" id="raphael-marker-block"></path><marker id="raphael-marker-endblock55-obj190" markerHeight="5" markerWidth="5" orient="auto" refX="2.5" refY="2.5"><use xlink:href="#raphael-marker-block" transform="rotate(180 2.5 2.5) scale(1,1)" stroke-width="1.0000" fill="#000" stroke="none"></use></marker><marker id="raphael-marker-endblock55-obj193" markerHeight="5" markerWidth="5" orient="auto" refX="2.5" refY="2.5"><use xlink:href="#raphael-marker-block" transform="rotate(180 2.5 2.5) scale(1,1)" stroke-width="1.0000" fill="#000" stroke="none"></use></marker><marker id="raphael-marker-endblock55-obj196" markerHeight="5" markerWidth="5" orient="auto" refX="2.5" refY="2.5"><use xlink:href="#raphael-marker-block" transform="rotate(180 2.5 2.5) scale(1,1)" stroke-width="1.0000" fill="#000" stroke="none"></use></marker></defs><rect x="10" y="20" width="166" height="39" rx="0" ry="0" fill="none" stroke="#000000" stroke-width="2" style=""></rect><rect x="20" y="30" width="146" height="19" rx="0" ry="0" fill="#ffffff" stroke="none" style=""></rect><text x="93" y="39.5" text-anchor="middle" font-family="Andale Mono, monospace" font-size="16px" stroke="none" fill="#000000" style="text-anchor: middle; font-family: 'Andale Mono', monospace; font-size: 16px;"><tspan dy="6">flight director</tspan></text><rect x="10" y="245" width="166" height="39" rx="0" ry="0" fill="none" stroke="#000000" stroke-width="2" style=""></rect><rect x="20" y="255" width="146" height="19" rx="0" ry="0" fill="#ffffff" stroke="none" style=""></rect><text x="93" y="264.5" text-anchor="middle" font-family="Andale Mono, monospace" font-size="16px" stroke="none" fill="#000000" style="text-anchor: middle; font-family: 'Andale Mono', monospace; font-size: 16px;"><tspan dy="6">flight director</tspan></text><path fill="none" stroke="#000000" d="M93,59L93,245" stroke-width="2" style=""></path><rect x="196" y="20" width="98" height="39" rx="0" ry="0" fill="none" stroke="#000000" stroke-width="2" style=""></rect><rect x="206" y="30" width="78" height="19" rx="0" ry="0" fill="#ffffff" stroke="none" style=""></rect><text x="245" y="39.5" text-anchor="middle" font-family="Andale Mono, monospace" font-size="16px" stroke="none" fill="#000000" style="text-anchor: middle; font-family: 'Andale Mono', monospace; font-size: 16px;"><tspan dy="6">marathon</tspan></text><rect x="196" y="245" width="98" height="39" rx="0" ry="0" fill="none" stroke="#000000" stroke-width="2" style=""></rect><rect x="206" y="255" width="78" height="19" rx="0" ry="0" fill="#ffffff" stroke="none" style=""></rect><text x="245" y="264.5" text-anchor="middle" font-family="Andale Mono, monospace" font-size="16px" stroke="none" fill="#000000" style="text-anchor: middle; font-family: 'Andale Mono', monospace; font-size: 16px;"><tspan dy="6">marathon</tspan></text><path fill="none" stroke="#000000" d="M245,59L245,245" stroke-width="2" style=""></path><rect x="458" y="20" width="78" height="39" rx="0" ry="0" fill="none" stroke="#000000" stroke-width="2" style=""></rect><rect x="468" y="30" width="58" height="19" rx="0" ry="0" fill="#ffffff" stroke="none" style=""></rect><text x="497" y="39.5" text-anchor="middle" font-family="Andale Mono, monospace" font-size="16px" stroke="none" fill="#000000" style="text-anchor: middle; font-family: 'Andale Mono', monospace; font-size: 16px;"><tspan dy="6">capcom</tspan></text><rect x="458" y="245" width="78" height="39" rx="0" ry="0" fill="none" stroke="#000000" stroke-width="2" style=""></rect><rect x="468" y="255" width="58" height="19" rx="0" ry="0" fill="#ffffff" stroke="none" style=""></rect><text x="497" y="264.5" text-anchor="middle" font-family="Andale Mono, monospace" font-size="16px" stroke="none" fill="#000000" style="text-anchor: middle; font-family: 'Andale Mono', monospace; font-size: 16px;"><tspan dy="6">capcom</tspan></text><path fill="none" stroke="#000000" d="M497,59L497,245" stroke-width="2" style=""></path><rect x="762" y="20" width="70" height="39" rx="0" ry="0" fill="none" stroke="#000000" stroke-width="2" style=""></rect><rect x="772" y="30" width="50" height="19" rx="0" ry="0" fill="#ffffff" stroke="none" style=""></rect><text x="797" y="39.5" text-anchor="middle" font-family="Andale Mono, monospace" font-size="16px" stroke="none" fill="#000000" style="text-anchor: middle; font-family: 'Andale Mono', monospace; font-size: 16px;"><tspan dy="6">nginx</tspan></text><rect x="762" y="245" width="70" height="39" rx="0" ry="0" fill="none" stroke="#000000" stroke-width="2" style=""></rect><rect x="772" y="255" width="50" height="19" rx="0" ry="0" fill="#ffffff" stroke="none" style=""></rect><text x="797" y="264.5" text-anchor="middle" font-family="Andale Mono, monospace" font-size="16px" stroke="none" fill="#000000" style="text-anchor: middle; font-family: 'Andale Mono', monospace; font-size: 16px;"><tspan dy="6">nginx</tspan></text><path fill="none" stroke="#000000" d="M797,59L797,245" stroke-width="2" style=""></path><rect x="852" y="20" width="78" height="39" rx="0" ry="0" fill="none" stroke="#000000" stroke-width="2" style=""></rect><rect x="862" y="30" width="58" height="19" rx="0" ry="0" fill="#ffffff" stroke="none" style=""></rect><text x="891" y="39.5" text-anchor="middle" font-family="Andale Mono, monospace" font-size="16px" stroke="none" fill="#000000" style="text-anchor: middle; font-family: 'Andale Mono', monospace; font-size: 16px;"><tspan dy="6">ngingx</tspan></text><rect x="852" y="245" width="78" height="39" rx="0" ry="0" fill="none" stroke="#000000" stroke-width="2" style=""></rect><rect x="862" y="255" width="58" height="19" rx="0" ry="0" fill="#ffffff" stroke="none" style=""></rect><text x="891" y="264.5" text-anchor="middle" font-family="Andale Mono, monospace" font-size="16px" stroke="none" fill="#000000" style="text-anchor: middle; font-family: 'Andale Mono', monospace; font-size: 16px;"><tspan dy="6">ngingx</tspan></text><path fill="none" stroke="#000000" d="M891,59L891,245" stroke-width="2" style=""></path><rect x="106" y="74" width="126" height="19" rx="0" ry="0" fill="#ffffff" stroke="none" style=""></rect><text x="169" y="84" text-anchor="middle" font-family="Andale Mono, monospace" font-size="16px" stroke="none" fill="#000000" style="text-anchor: middle; font-family: 'Andale Mono', monospace; font-size: 16px;"><tspan dy="5.5">publishes app</tspan></text><path fill="none" stroke="#000000" d="M93,98C93,98,213.7667441368103,98,240.0075650063809,98" stroke-width="2" marker-end="url(#raphael-marker-endblock55-obj190)" stroke-dasharray="0" style=""></path><rect x="255" y="113" width="232" height="19" rx="0" ry="0" fill="#ffffff" stroke="none" style=""></rect><text x="371" y="123" text-anchor="middle" font-family="Andale Mono, monospace" font-size="16px" stroke="none" fill="#000000" style="text-anchor: middle; font-family: 'Andale Mono', monospace; font-size: 16px;"><tspan dy="5.5">retrieves app parameters</tspan></text><path fill="none" stroke="#000000" d="M497,137C497,137,285.43794655799866,137,250.00543467781972,137" stroke-width="2" marker-end="url(#raphael-marker-endblock55-obj193)" stroke-dasharray="0" style=""></path><rect x="507" y="152" width="280" height="19" rx="0" ry="0" fill="#ffffff" stroke="none" style=""></rect><text x="647" y="162" text-anchor="middle" font-family="Andale Mono, monospace" font-size="16px" stroke="none" fill="#000000" style="text-anchor: middle; font-family: 'Andale Mono', monospace; font-size: 16px;"><tspan dy="5.5">publishes app on service port</tspan></text><path fill="none" stroke="#000000" d="M497,176C497,176,752.8345720171928,176,791.9967489348637,176" stroke-width="2" marker-end="url(#raphael-marker-endblock55-obj196)" stroke-dasharray="0" style=""></path><rect x="911" y="196" width="290" height="29" rx="0" ry="0" fill="none" stroke="#000000" stroke-width="2" style=""></rect><rect x="916" y="201" width="280" height="19" rx="0" ry="0" fill="#ffffff" stroke="none" style=""></rect><text x="1056" y="210.5" text-anchor="middle" font-family="Andale Mono, monospace" font-size="16px" stroke="none" fill="#000000" style="text-anchor: middle; font-family: 'Andale Mono', monospace; font-size: 16px;"><tspan dy="6">Establishes the balancer port</tspan></text></svg>
