<?xml version="1.0" encoding="utf-8" standalone="no"?><!DOCTYPE svg PUBLIC "-//W3C//DTD SVG 20010904//EN" "http://www.w3.org/TR/2001/REC-SVG-20010904/DTD/svg10.dtd"><svg xmlns="http://www.w3.org/2000/svg" width="895" height="333" xmlns:xlink="http://www.w3.org/1999/xlink"><source><![CDATA[CoreOS Channel->update_engine:Signals Update available

update_engine->node: pulls update
update_engine->CoreOS Channel: Signals complete
update os unit->CoreOS Channel: Polls to see if reboot needed
update os unit->skopos: Signals reboot needed]]></source><desc>Created with Raphaël 2.1.2</desc><defs><path stroke-linecap="round" d="M5,0 0,2.5 5,5z" id="raphael-marker-block"></path><marker id="raphael-marker-endblock55-obj191" markerHeight="5" markerWidth="5" orient="auto" refX="2.5" refY="2.5"><use xlink:href="#raphael-marker-block" transform="rotate(180 2.5 2.5) scale(1,1)" stroke-width="1.0000" fill="#000" stroke="none"></use></marker><marker id="raphael-marker-endblock55-obj194" markerHeight="5" markerWidth="5" orient="auto" refX="2.5" refY="2.5"><use xlink:href="#raphael-marker-block" transform="rotate(180 2.5 2.5) scale(1,1)" stroke-width="1.0000" fill="#000" stroke="none"></use></marker><marker id="raphael-marker-endblock55-obj197" markerHeight="5" markerWidth="5" orient="auto" refX="2.5" refY="2.5"><use xlink:href="#raphael-marker-block" transform="rotate(180 2.5 2.5) scale(1,1)" stroke-width="1.0000" fill="#000" stroke="none"></use></marker><marker id="raphael-marker-endblock55-obj200" markerHeight="5" markerWidth="5" orient="auto" refX="2.5" refY="2.5"><use xlink:href="#raphael-marker-block" transform="rotate(180 2.5 2.5) scale(1,1)" stroke-width="1.0000" fill="#000" stroke="none"></use></marker><marker id="raphael-marker-endblock55-obj203" markerHeight="5" markerWidth="5" orient="auto" refX="2.5" refY="2.5"><use xlink:href="#raphael-marker-block" transform="rotate(180 2.5 2.5) scale(1,1)" stroke-width="1.0000" fill="#000" stroke="none"></use></marker></defs><rect x="10" y="20" width="156" height="39" rx="0" ry="0" fill="none" stroke="#000000" stroke-width="2" style=""></rect><rect x="20" y="30" width="136" height="19" rx="0" ry="0" fill="#ffffff" stroke="none" style=""></rect><text x="88" y="39.5" text-anchor="middle" font-family="Andale Mono, monospace" font-size="16px" stroke="none" fill="#000000" style="text-anchor: middle; font-family: 'Andale Mono', monospace; font-size: 16px;"><tspan dy="6">CoreOS Channel</tspan></text><rect x="10" y="274" width="156" height="39" rx="0" ry="0" fill="none" stroke="#000000" stroke-width="2" style=""></rect><rect x="20" y="284" width="136" height="19" rx="0" ry="0" fill="#ffffff" stroke="none" style=""></rect><text x="88" y="293.5" text-anchor="middle" font-family="Andale Mono, monospace" font-size="16px" stroke="none" fill="#000000" style="text-anchor: middle; font-family: 'Andale Mono', monospace; font-size: 16px;"><tspan dy="6">CoreOS Channel</tspan></text><path fill="none" stroke="#000000" d="M88,59L88,274" stroke-width="2" style=""></path><rect x="267" y="20" width="146" height="39" rx="0" ry="0" fill="none" stroke="#000000" stroke-width="2" style=""></rect><rect x="277" y="30" width="126" height="19" rx="0" ry="0" fill="#ffffff" stroke="none" style=""></rect><text x="340" y="39.5" text-anchor="middle" font-family="Andale Mono, monospace" font-size="16px" stroke="none" fill="#000000" style="text-anchor: middle; font-family: 'Andale Mono', monospace; font-size: 16px;"><tspan dy="6">update_engine</tspan></text><rect x="267" y="274" width="146" height="39" rx="0" ry="0" fill="none" stroke="#000000" stroke-width="2" style=""></rect><rect x="277" y="284" width="126" height="19" rx="0" ry="0" fill="#ffffff" stroke="none" style=""></rect><text x="340" y="293.5" text-anchor="middle" font-family="Andale Mono, monospace" font-size="16px" stroke="none" fill="#000000" style="text-anchor: middle; font-family: 'Andale Mono', monospace; font-size: 16px;"><tspan dy="6">update_engine</tspan></text><path fill="none" stroke="#000000" d="M340,59L340,274" stroke-width="2" style=""></path><rect x="446" y="20" width="60" height="39" rx="0" ry="0" fill="none" stroke="#000000" stroke-width="2" style=""></rect><rect x="456" y="30" width="40" height="19" rx="0" ry="0" fill="#ffffff" stroke="none" style=""></rect><text x="476" y="39.5" text-anchor="middle" font-family="Andale Mono, monospace" font-size="16px" stroke="none" fill="#000000" style="text-anchor: middle; font-family: 'Andale Mono', monospace; font-size: 16px;"><tspan dy="6">node</tspan></text><rect x="446" y="274" width="60" height="39" rx="0" ry="0" fill="none" stroke="#000000" stroke-width="2" style=""></rect><rect x="456" y="284" width="40" height="19" rx="0" ry="0" fill="#ffffff" stroke="none" style=""></rect><text x="476" y="293.5" text-anchor="middle" font-family="Andale Mono, monospace" font-size="16px" stroke="none" fill="#000000" style="text-anchor: middle; font-family: 'Andale Mono', monospace; font-size: 16px;"><tspan dy="6">node</tspan></text><path fill="none" stroke="#000000" d="M476,59L476,274" stroke-width="2" style=""></path><rect x="526" y="20" width="156" height="39" rx="0" ry="0" fill="none" stroke="#000000" stroke-width="2" style=""></rect><rect x="536" y="30" width="136" height="19" rx="0" ry="0" fill="#ffffff" stroke="none" style=""></rect><text x="604" y="39.5" text-anchor="middle" font-family="Andale Mono, monospace" font-size="16px" stroke="none" fill="#000000" style="text-anchor: middle; font-family: 'Andale Mono', monospace; font-size: 16px;"><tspan dy="6">update os unit</tspan></text><rect x="526" y="274" width="156" height="39" rx="0" ry="0" fill="none" stroke="#000000" stroke-width="2" style=""></rect><rect x="536" y="284" width="136" height="19" rx="0" ry="0" fill="#ffffff" stroke="none" style=""></rect><text x="604" y="293.5" text-anchor="middle" font-family="Andale Mono, monospace" font-size="16px" stroke="none" fill="#000000" style="text-anchor: middle; font-family: 'Andale Mono', monospace; font-size: 16px;"><tspan dy="6">update os unit</tspan></text><path fill="none" stroke="#000000" d="M604,59L604,274" stroke-width="2" style=""></path><rect x="787" y="20" width="78" height="39" rx="0" ry="0" fill="none" stroke="#000000" stroke-width="2" style=""></rect><rect x="797" y="30" width="58" height="19" rx="0" ry="0" fill="#ffffff" stroke="none" style=""></rect><text x="826" y="39.5" text-anchor="middle" font-family="Andale Mono, monospace" font-size="16px" stroke="none" fill="#000000" style="text-anchor: middle; font-family: 'Andale Mono', monospace; font-size: 16px;"><tspan dy="6">skopos</tspan></text><rect x="787" y="274" width="78" height="39" rx="0" ry="0" fill="none" stroke="#000000" stroke-width="2" style=""></rect><rect x="797" y="284" width="58" height="19" rx="0" ry="0" fill="#ffffff" stroke="none" style=""></rect><text x="826" y="293.5" text-anchor="middle" font-family="Andale Mono, monospace" font-size="16px" stroke="none" fill="#000000" style="text-anchor: middle; font-family: 'Andale Mono', monospace; font-size: 16px;"><tspan dy="6">skopos</tspan></text><path fill="none" stroke="#000000" d="M826,59L826,274" stroke-width="2" style=""></path><rect x="98" y="74" width="232" height="19" rx="0" ry="0" fill="#ffffff" stroke="none" style=""></rect><text x="214" y="84" text-anchor="middle" font-family="Andale Mono, monospace" font-size="16px" stroke="none" fill="#000000" style="text-anchor: middle; font-family: 'Andale Mono', monospace; font-size: 16px;"><tspan dy="5.5">Signals Update available</tspan></text><path fill="none" stroke="#000000" d="M88,98C88,98,299.56205344200134,98,334.9945653221803,98" stroke-width="2" marker-end="url(#raphael-marker-endblock55-obj191)" stroke-dasharray="0" style=""></path><rect x="350" y="113" width="116" height="19" rx="0" ry="0" fill="#ffffff" stroke="none" style=""></rect><text x="408" y="123" text-anchor="middle" font-family="Andale Mono, monospace" font-size="16px" stroke="none" fill="#000000" style="text-anchor: middle; font-family: 'Andale Mono', monospace; font-size: 16px;"><tspan dy="5.5">pulls update</tspan></text><path fill="none" stroke="#000000" d="M340,137C340,137,446.4621887207031,137,470.9983962774277,137" stroke-width="2" marker-end="url(#raphael-marker-endblock55-obj194)" stroke-dasharray="0" style=""></path><rect x="137" y="152" width="154" height="19" rx="0" ry="0" fill="#ffffff" stroke="none" style=""></rect><text x="214" y="162" text-anchor="middle" font-family="Andale Mono, monospace" font-size="16px" stroke="none" fill="#000000" style="text-anchor: middle; font-family: 'Andale Mono', monospace; font-size: 16px;"><tspan dy="5.5">Signals complete</tspan></text><path fill="none" stroke="#000000" d="M340,176C340,176,128.43794655799866,176,93.00543467781972,176" stroke-width="2" marker-end="url(#raphael-marker-endblock55-obj197)" stroke-dasharray="0" style=""></path><rect x="206" y="191" width="280" height="19" rx="0" ry="0" fill="#ffffff" stroke="none" style=""></rect><text x="346" y="201" text-anchor="middle" font-family="Andale Mono, monospace" font-size="16px" stroke="none" fill="#000000" style="text-anchor: middle; font-family: 'Andale Mono', monospace; font-size: 16px;"><tspan dy="5.5">Polls to see if reboot needed</tspan></text><path fill="none" stroke="#000000" d="M604,215C604,215,146.10403674840927,215,93.00330858812958,215" stroke-width="2" marker-end="url(#raphael-marker-endblock55-obj200)" stroke-dasharray="0" style=""></path><rect x="614" y="230" width="202" height="19" rx="0" ry="0" fill="#ffffff" stroke="none" style=""></rect><text x="715" y="240" text-anchor="middle" font-family="Andale Mono, monospace" font-size="16px" stroke="none" fill="#000000" style="text-anchor: middle; font-family: 'Andale Mono', monospace; font-size: 16px;"><tspan dy="5.5">Signals reboot needed</tspan></text><path fill="none" stroke="#000000" d="M604,254C604,254,788.0987086296082,254,820.9991614413448,254" stroke-width="2" marker-end="url(#raphael-marker-endblock55-obj203)" stroke-dasharray="0" style=""></path></svg>
