<?xml version="1.0" encoding="utf-8" standalone="no"?><!DOCTYPE svg PUBLIC "-//W3C//DTD SVG 20010904//EN" "http://www.w3.org/TR/2001/REC-SVG-20010904/DTD/svg10.dtd"><svg xmlns="http://www.w3.org/2000/svg" width="1607" height="314" xmlns:xlink="http://www.w3.org/1999/xlink"><source><![CDATA[locust fleet->nginx: Requests uri
Note left of locust: locust master and 2 slave can produce heavy load
nginx->app: spreads request across app instances
Note right of app: app should have a least 2 instances that are staged on *different* nodes]]></source><desc>Created with Raphaël 2.1.2</desc><defs><path stroke-linecap="round" d="M5,0 0,2.5 5,5z" id="raphael-marker-block"></path><marker id="raphael-marker-endblock55-obj182" markerHeight="5" markerWidth="5" orient="auto" refX="2.5" refY="2.5"><use xlink:href="#raphael-marker-block" transform="rotate(180 2.5 2.5) scale(1,1)" stroke-width="1.0000" fill="#000" stroke="none"></use></marker><marker id="raphael-marker-endblock55-obj188" markerHeight="5" markerWidth="5" orient="auto" refX="2.5" refY="2.5"><use xlink:href="#raphael-marker-block" transform="rotate(180 2.5 2.5) scale(1,1)" stroke-width="1.0000" fill="#000" stroke="none"></use></marker></defs><rect x="10" y="20" width="136" height="39" rx="0" ry="0" fill="none" stroke="#000000" stroke-width="2" style=""></rect><rect x="20" y="30" width="116" height="19" rx="0" ry="0" fill="#ffffff" stroke="none" style=""></rect><text x="78" y="39.5" text-anchor="middle" font-family="Andale Mono, monospace" font-size="16px" stroke="none" fill="#000000" style="text-anchor: middle; font-family: 'Andale Mono', monospace; font-size: 16px;"><tspan dy="6">locust fleet</tspan></text><rect x="10" y="255" width="136" height="39" rx="0" ry="0" fill="none" stroke="#000000" stroke-width="2" style=""></rect><rect x="20" y="265" width="116" height="19" rx="0" ry="0" fill="#ffffff" stroke="none" style=""></rect><text x="78" y="274.5" text-anchor="middle" font-family="Andale Mono, monospace" font-size="16px" stroke="none" fill="#000000" style="text-anchor: middle; font-family: 'Andale Mono', monospace; font-size: 16px;"><tspan dy="6">locust fleet</tspan></text><path fill="none" stroke="#000000" d="M78,59L78,255" stroke-width="2" style=""></path><rect x="179" y="20" width="70" height="39" rx="0" ry="0" fill="none" stroke="#000000" stroke-width="2" style=""></rect><rect x="189" y="30" width="50" height="19" rx="0" ry="0" fill="#ffffff" stroke="none" style=""></rect><text x="214" y="39.5" text-anchor="middle" font-family="Andale Mono, monospace" font-size="16px" stroke="none" fill="#000000" style="text-anchor: middle; font-family: 'Andale Mono', monospace; font-size: 16px;"><tspan dy="6">nginx</tspan></text><rect x="179" y="255" width="70" height="39" rx="0" ry="0" fill="none" stroke="#000000" stroke-width="2" style=""></rect><rect x="189" y="265" width="50" height="19" rx="0" ry="0" fill="#ffffff" stroke="none" style=""></rect><text x="214" y="274.5" text-anchor="middle" font-family="Andale Mono, monospace" font-size="16px" stroke="none" fill="#000000" style="text-anchor: middle; font-family: 'Andale Mono', monospace; font-size: 16px;"><tspan dy="6">nginx</tspan></text><path fill="none" stroke="#000000" d="M214,59L214,255" stroke-width="2" style=""></path><rect x="687" y="20" width="78" height="39" rx="0" ry="0" fill="none" stroke="#000000" stroke-width="2" style=""></rect><rect x="697" y="30" width="58" height="19" rx="0" ry="0" fill="#ffffff" stroke="none" style=""></rect><text x="726" y="39.5" text-anchor="middle" font-family="Andale Mono, monospace" font-size="16px" stroke="none" fill="#000000" style="text-anchor: middle; font-family: 'Andale Mono', monospace; font-size: 16px;"><tspan dy="6">locust</tspan></text><rect x="687" y="255" width="78" height="39" rx="0" ry="0" fill="none" stroke="#000000" stroke-width="2" style=""></rect><rect x="697" y="265" width="58" height="19" rx="0" ry="0" fill="#ffffff" stroke="none" style=""></rect><text x="726" y="274.5" text-anchor="middle" font-family="Andale Mono, monospace" font-size="16px" stroke="none" fill="#000000" style="text-anchor: middle; font-family: 'Andale Mono', monospace; font-size: 16px;"><tspan dy="6">locust</tspan></text><path fill="none" stroke="#000000" d="M726,59L726,255" stroke-width="2" style=""></path><rect x="785" y="20" width="50" height="39" rx="0" ry="0" fill="none" stroke="#000000" stroke-width="2" style=""></rect><rect x="795" y="30" width="30" height="19" rx="0" ry="0" fill="#ffffff" stroke="none" style=""></rect><text x="810" y="39.5" text-anchor="middle" font-family="Andale Mono, monospace" font-size="16px" stroke="none" fill="#000000" style="text-anchor: middle; font-family: 'Andale Mono', monospace; font-size: 16px;"><tspan dy="6">app</tspan></text><rect x="785" y="255" width="50" height="39" rx="0" ry="0" fill="none" stroke="#000000" stroke-width="2" style=""></rect><rect x="795" y="265" width="30" height="19" rx="0" ry="0" fill="#ffffff" stroke="none" style=""></rect><text x="810" y="274.5" text-anchor="middle" font-family="Andale Mono, monospace" font-size="16px" stroke="none" fill="#000000" style="text-anchor: middle; font-family: 'Andale Mono', monospace; font-size: 16px;"><tspan dy="6">app</tspan></text><path fill="none" stroke="#000000" d="M810,59L810,255" stroke-width="2" style=""></path><rect x="88" y="74" width="116" height="19" rx="0" ry="0" fill="#ffffff" stroke="none" style=""></rect><text x="146" y="84" text-anchor="middle" font-family="Andale Mono, monospace" font-size="16px" stroke="none" fill="#000000" style="text-anchor: middle; font-family: 'Andale Mono', monospace; font-size: 16px;"><tspan dy="5.5">Requests uri</tspan></text><path fill="none" stroke="#000000" d="M78,98C78,98,184.46218872070312,98,208.99839627742767,98" stroke-width="2" marker-end="url(#raphael-marker-endblock55-obj182)" stroke-dasharray="0" style=""></path><rect x="234" y="118" width="472" height="29" rx="0" ry="0" fill="none" stroke="#000000" stroke-width="2" style=""></rect><rect x="239" y="123" width="462" height="19" rx="0" ry="0" fill="#ffffff" stroke="none" style=""></rect><text x="470" y="132.5" text-anchor="middle" font-family="Andale Mono, monospace" font-size="16px" stroke="none" fill="#000000" style="text-anchor: middle; font-family: 'Andale Mono', monospace; font-size: 16px;"><tspan dy="6">locust master and 2 slave can produce heavy load</tspan></text><rect x="339" y="162" width="346" height="19" rx="0" ry="0" fill="#ffffff" stroke="none" style=""></rect><text x="512" y="172" text-anchor="middle" font-family="Andale Mono, monospace" font-size="16px" stroke="none" fill="#000000" style="text-anchor: middle; font-family: 'Andale Mono', monospace; font-size: 16px;"><tspan dy="5.5">spreads request across app instances</tspan></text><path fill="none" stroke="#000000" d="M214,186C214,186,747.5582583546638,186,805.0043501355249,186" stroke-width="2" marker-end="url(#raphael-marker-endblock55-obj188)" stroke-dasharray="0" style=""></path><rect x="830" y="206" width="702" height="29" rx="0" ry="0" fill="none" stroke="#000000" stroke-width="2" style=""></rect><rect x="835" y="211" width="692" height="19" rx="0" ry="0" fill="#ffffff" stroke="none" style=""></rect><text x="1181" y="220.5" text-anchor="middle" font-family="Andale Mono, monospace" font-size="16px" stroke="none" fill="#000000" style="text-anchor: middle; font-family: 'Andale Mono', monospace; font-size: 16px;"><tspan dy="6">app should have a least 2 instances that are staged on *different* nodes</tspan></text></svg>
